<?xml version="1.0" encoding="utf-8" standalone="no"?>
<!DOCTYPE svg PUBLIC "-//W3C//DTD SVG 1.1//EN"
  "http://www.w3.org/Graphics/SVG/1.1/DTD/svg11.dtd">
<!-- Created with matplotlib (https://matplotlib.org/) -->
<svg height="345.6pt" version="1.1" viewBox="0 0 460.8 345.6" width="460.8pt" xmlns="http://www.w3.org/2000/svg" xmlns:xlink="http://www.w3.org/1999/xlink">
 <metadata>
  <rdf:RDF xmlns:cc="http://creativecommons.org/ns#" xmlns:dc="http://purl.org/dc/elements/1.1/" xmlns:rdf="http://www.w3.org/1999/02/22-rdf-syntax-ns#">
   <cc:Work>
    <dc:type rdf:resource="http://purl.org/dc/dcmitype/StillImage"/>
    <dc:date>2021-06-27T13:46:26.600125</dc:date>
    <dc:format>image/svg+xml</dc:format>
    <dc:creator>
     <cc:Agent>
      <dc:title>Matplotlib v3.3.4, https://matplotlib.org/</dc:title>
     </cc:Agent>
    </dc:creator>
   </cc:Work>
  </rdf:RDF>
 </metadata>
 <defs>
  <style type="text/css">*{stroke-linecap:butt;stroke-linejoin:round;}</style>
 </defs>
 <g id="figure_1">
  <g id="patch_1">
   <path d="M 0 345.6 
L 460.8 345.6 
L 460.8 0 
L 0 0 
z
" style="fill:none;"/>
  </g>
  <g id="axes_1">
   <g id="patch_2">
    <path d="M 54.245 303.64 
L 448.647743 303.64 
L 448.647743 11.682088 
L 54.245 11.682088 
z
" style="fill:none;"/>
   </g>
   <g id="matplotlib.axis_1">
    <g id="xtick_1">
     <g id="line2d_1">
      <path clip-path="url(#p19bffa6e5a)" d="M 72.172397 303.64 
L 72.172397 11.682088 
" style="fill:none;stroke:#b0b0b0;stroke-linecap:square;stroke-width:0.8;"/>
     </g>
     <g id="line2d_2">
      <defs>
       <path d="M 0 0 
L 0 3.5 
" id="mf4b16d12db" style="stroke:#000000;stroke-width:0.8;"/>
      </defs>
      <g>
       <use style="stroke:#000000;stroke-width:0.8;" x="72.172397" xlink:href="#mf4b16d12db" y="303.64"/>
      </g>
     </g>
     <g id="text_1">
      <!-- 0 -->
      <g transform="translate(68.991147 318.238437)scale(0.1 -0.1)">
       <defs>
        <path d="M 31.78125 66.40625 
Q 24.171875 66.40625 20.328125 58.90625 
Q 16.5 51.421875 16.5 36.375 
Q 16.5 21.390625 20.328125 13.890625 
Q 24.171875 6.390625 31.78125 6.390625 
Q 39.453125 6.390625 43.28125 13.890625 
Q 47.125 21.390625 47.125 36.375 
Q 47.125 51.421875 43.28125 58.90625 
Q 39.453125 66.40625 31.78125 66.40625 
z
M 31.78125 74.21875 
Q 44.046875 74.21875 50.515625 64.515625 
Q 56.984375 54.828125 56.984375 36.375 
Q 56.984375 17.96875 50.515625 8.265625 
Q 44.046875 -1.421875 31.78125 -1.421875 
Q 19.53125 -1.421875 13.0625 8.265625 
Q 6.59375 17.96875 6.59375 36.375 
Q 6.59375 54.828125 13.0625 64.515625 
Q 19.53125 74.21875 31.78125 74.21875 
z
" id="DejaVuSans-48"/>
       </defs>
       <use xlink:href="#DejaVuSans-48"/>
      </g>
     </g>
    </g>
    <g id="xtick_2">
     <g id="line2d_3">
      <path clip-path="url(#p19bffa6e5a)" d="M 133.991009 303.64 
L 133.991009 11.682088 
" style="fill:none;stroke:#b0b0b0;stroke-linecap:square;stroke-width:0.8;"/>
     </g>
     <g id="line2d_4">
      <g>
       <use style="stroke:#000000;stroke-width:0.8;" x="133.991009" xlink:href="#mf4b16d12db" y="303.64"/>
      </g>
     </g>
     <g id="text_2">
      <!-- 5 -->
      <g transform="translate(130.809759 318.238437)scale(0.1 -0.1)">
       <defs>
        <path d="M 10.796875 72.90625 
L 49.515625 72.90625 
L 49.515625 64.59375 
L 19.828125 64.59375 
L 19.828125 46.734375 
Q 21.96875 47.46875 24.109375 47.828125 
Q 26.265625 48.1875 28.421875 48.1875 
Q 40.625 48.1875 47.75 41.5 
Q 54.890625 34.8125 54.890625 23.390625 
Q 54.890625 11.625 47.5625 5.09375 
Q 40.234375 -1.421875 26.90625 -1.421875 
Q 22.3125 -1.421875 17.546875 -0.640625 
Q 12.796875 0.140625 7.71875 1.703125 
L 7.71875 11.625 
Q 12.109375 9.234375 16.796875 8.0625 
Q 21.484375 6.890625 26.703125 6.890625 
Q 35.15625 6.890625 40.078125 11.328125 
Q 45.015625 15.765625 45.015625 23.390625 
Q 45.015625 31 40.078125 35.4375 
Q 35.15625 39.890625 26.703125 39.890625 
Q 22.75 39.890625 18.8125 39.015625 
Q 14.890625 38.140625 10.796875 36.28125 
z
" id="DejaVuSans-53"/>
       </defs>
       <use xlink:href="#DejaVuSans-53"/>
      </g>
     </g>
    </g>
    <g id="xtick_3">
     <g id="line2d_5">
      <path clip-path="url(#p19bffa6e5a)" d="M 195.809621 303.64 
L 195.809621 11.682088 
" style="fill:none;stroke:#b0b0b0;stroke-linecap:square;stroke-width:0.8;"/>
     </g>
     <g id="line2d_6">
      <g>
       <use style="stroke:#000000;stroke-width:0.8;" x="195.809621" xlink:href="#mf4b16d12db" y="303.64"/>
      </g>
     </g>
     <g id="text_3">
      <!-- 10 -->
      <g transform="translate(189.447121 318.238437)scale(0.1 -0.1)">
       <defs>
        <path d="M 12.40625 8.296875 
L 28.515625 8.296875 
L 28.515625 63.921875 
L 10.984375 60.40625 
L 10.984375 69.390625 
L 28.421875 72.90625 
L 38.28125 72.90625 
L 38.28125 8.296875 
L 54.390625 8.296875 
L 54.390625 0 
L 12.40625 0 
z
" id="DejaVuSans-49"/>
       </defs>
       <use xlink:href="#DejaVuSans-49"/>
       <use x="63.623047" xlink:href="#DejaVuSans-48"/>
      </g>
     </g>
    </g>
    <g id="xtick_4">
     <g id="line2d_7">
      <path clip-path="url(#p19bffa6e5a)" d="M 257.628233 303.64 
L 257.628233 11.682088 
" style="fill:none;stroke:#b0b0b0;stroke-linecap:square;stroke-width:0.8;"/>
     </g>
     <g id="line2d_8">
      <g>
       <use style="stroke:#000000;stroke-width:0.8;" x="257.628233" xlink:href="#mf4b16d12db" y="303.64"/>
      </g>
     </g>
     <g id="text_4">
      <!-- 15 -->
      <g transform="translate(251.265733 318.238437)scale(0.1 -0.1)">
       <use xlink:href="#DejaVuSans-49"/>
       <use x="63.623047" xlink:href="#DejaVuSans-53"/>
      </g>
     </g>
    </g>
    <g id="xtick_5">
     <g id="line2d_9">
      <path clip-path="url(#p19bffa6e5a)" d="M 319.446844 303.64 
L 319.446844 11.682088 
" style="fill:none;stroke:#b0b0b0;stroke-linecap:square;stroke-width:0.8;"/>
     </g>
     <g id="line2d_10">
      <g>
       <use style="stroke:#000000;stroke-width:0.8;" x="319.446844" xlink:href="#mf4b16d12db" y="303.64"/>
      </g>
     </g>
     <g id="text_5">
      <!-- 20 -->
      <g transform="translate(313.084344 318.238437)scale(0.1 -0.1)">
       <defs>
        <path d="M 19.1875 8.296875 
L 53.609375 8.296875 
L 53.609375 0 
L 7.328125 0 
L 7.328125 8.296875 
Q 12.9375 14.109375 22.625 23.890625 
Q 32.328125 33.6875 34.8125 36.53125 
Q 39.546875 41.84375 41.421875 45.53125 
Q 43.3125 49.21875 43.3125 52.78125 
Q 43.3125 58.59375 39.234375 62.25 
Q 35.15625 65.921875 28.609375 65.921875 
Q 23.96875 65.921875 18.8125 64.3125 
Q 13.671875 62.703125 7.8125 59.421875 
L 7.8125 69.390625 
Q 13.765625 71.78125 18.9375 73 
Q 24.125 74.21875 28.421875 74.21875 
Q 39.75 74.21875 46.484375 68.546875 
Q 53.21875 62.890625 53.21875 53.421875 
Q 53.21875 48.921875 51.53125 44.890625 
Q 49.859375 40.875 45.40625 35.40625 
Q 44.1875 33.984375 37.640625 27.21875 
Q 31.109375 20.453125 19.1875 8.296875 
z
" id="DejaVuSans-50"/>
       </defs>
       <use xlink:href="#DejaVuSans-50"/>
       <use x="63.623047" xlink:href="#DejaVuSans-48"/>
      </g>
     </g>
    </g>
    <g id="xtick_6">
     <g id="line2d_11">
      <path clip-path="url(#p19bffa6e5a)" d="M 381.265456 303.64 
L 381.265456 11.682088 
" style="fill:none;stroke:#b0b0b0;stroke-linecap:square;stroke-width:0.8;"/>
     </g>
     <g id="line2d_12">
      <g>
       <use style="stroke:#000000;stroke-width:0.8;" x="381.265456" xlink:href="#mf4b16d12db" y="303.64"/>
      </g>
     </g>
     <g id="text_6">
      <!-- 25 -->
      <g transform="translate(374.902956 318.238437)scale(0.1 -0.1)">
       <use xlink:href="#DejaVuSans-50"/>
       <use x="63.623047" xlink:href="#DejaVuSans-53"/>
      </g>
     </g>
    </g>
    <g id="xtick_7">
     <g id="line2d_13">
      <path clip-path="url(#p19bffa6e5a)" d="M 443.084068 303.64 
L 443.084068 11.682088 
" style="fill:none;stroke:#b0b0b0;stroke-linecap:square;stroke-width:0.8;"/>
     </g>
     <g id="line2d_14">
      <g>
       <use style="stroke:#000000;stroke-width:0.8;" x="443.084068" xlink:href="#mf4b16d12db" y="303.64"/>
      </g>
     </g>
     <g id="text_7">
      <!-- 30 -->
      <g transform="translate(436.721568 318.238437)scale(0.1 -0.1)">
       <defs>
        <path d="M 40.578125 39.3125 
Q 47.65625 37.796875 51.625 33 
Q 55.609375 28.21875 55.609375 21.1875 
Q 55.609375 10.40625 48.1875 4.484375 
Q 40.765625 -1.421875 27.09375 -1.421875 
Q 22.515625 -1.421875 17.65625 -0.515625 
Q 12.796875 0.390625 7.625 2.203125 
L 7.625 11.71875 
Q 11.71875 9.328125 16.59375 8.109375 
Q 21.484375 6.890625 26.8125 6.890625 
Q 36.078125 6.890625 40.9375 10.546875 
Q 45.796875 14.203125 45.796875 21.1875 
Q 45.796875 27.640625 41.28125 31.265625 
Q 36.765625 34.90625 28.71875 34.90625 
L 20.21875 34.90625 
L 20.21875 43.015625 
L 29.109375 43.015625 
Q 36.375 43.015625 40.234375 45.921875 
Q 44.09375 48.828125 44.09375 54.296875 
Q 44.09375 59.90625 40.109375 62.90625 
Q 36.140625 65.921875 28.71875 65.921875 
Q 24.65625 65.921875 20.015625 65.03125 
Q 15.375 64.15625 9.8125 62.3125 
L 9.8125 71.09375 
Q 15.4375 72.65625 20.34375 73.4375 
Q 25.25 74.21875 29.59375 74.21875 
Q 40.828125 74.21875 47.359375 69.109375 
Q 53.90625 64.015625 53.90625 55.328125 
Q 53.90625 49.265625 50.4375 45.09375 
Q 46.96875 40.921875 40.578125 39.3125 
z
" id="DejaVuSans-51"/>
       </defs>
       <use xlink:href="#DejaVuSans-51"/>
       <use x="63.623047" xlink:href="#DejaVuSans-48"/>
      </g>
     </g>
    </g>
    <g id="text_8">
     <!-- Time steps -->
     <g transform="translate(224.203403 331.916562)scale(0.1 -0.1)">
      <defs>
       <path d="M -0.296875 72.90625 
L 61.375 72.90625 
L 61.375 64.59375 
L 35.5 64.59375 
L 35.5 0 
L 25.59375 0 
L 25.59375 64.59375 
L -0.296875 64.59375 
z
" id="DejaVuSans-84"/>
       <path d="M 9.421875 54.6875 
L 18.40625 54.6875 
L 18.40625 0 
L 9.421875 0 
z
M 9.421875 75.984375 
L 18.40625 75.984375 
L 18.40625 64.59375 
L 9.421875 64.59375 
z
" id="DejaVuSans-105"/>
       <path d="M 52 44.1875 
Q 55.375 50.25 60.0625 53.125 
Q 64.75 56 71.09375 56 
Q 79.640625 56 84.28125 50.015625 
Q 88.921875 44.046875 88.921875 33.015625 
L 88.921875 0 
L 79.890625 0 
L 79.890625 32.71875 
Q 79.890625 40.578125 77.09375 44.375 
Q 74.3125 48.1875 68.609375 48.1875 
Q 61.625 48.1875 57.5625 43.546875 
Q 53.515625 38.921875 53.515625 30.90625 
L 53.515625 0 
L 44.484375 0 
L 44.484375 32.71875 
Q 44.484375 40.625 41.703125 44.40625 
Q 38.921875 48.1875 33.109375 48.1875 
Q 26.21875 48.1875 22.15625 43.53125 
Q 18.109375 38.875 18.109375 30.90625 
L 18.109375 0 
L 9.078125 0 
L 9.078125 54.6875 
L 18.109375 54.6875 
L 18.109375 46.1875 
Q 21.1875 51.21875 25.484375 53.609375 
Q 29.78125 56 35.6875 56 
Q 41.65625 56 45.828125 52.96875 
Q 50 49.953125 52 44.1875 
z
" id="DejaVuSans-109"/>
       <path d="M 56.203125 29.59375 
L 56.203125 25.203125 
L 14.890625 25.203125 
Q 15.484375 15.921875 20.484375 11.0625 
Q 25.484375 6.203125 34.421875 6.203125 
Q 39.59375 6.203125 44.453125 7.46875 
Q 49.3125 8.734375 54.109375 11.28125 
L 54.109375 2.78125 
Q 49.265625 0.734375 44.1875 -0.34375 
Q 39.109375 -1.421875 33.890625 -1.421875 
Q 20.796875 -1.421875 13.15625 6.1875 
Q 5.515625 13.8125 5.515625 26.8125 
Q 5.515625 40.234375 12.765625 48.109375 
Q 20.015625 56 32.328125 56 
Q 43.359375 56 49.78125 48.890625 
Q 56.203125 41.796875 56.203125 29.59375 
z
M 47.21875 32.234375 
Q 47.125 39.59375 43.09375 43.984375 
Q 39.0625 48.390625 32.421875 48.390625 
Q 24.90625 48.390625 20.390625 44.140625 
Q 15.875 39.890625 15.1875 32.171875 
z
" id="DejaVuSans-101"/>
       <path id="DejaVuSans-32"/>
       <path d="M 44.28125 53.078125 
L 44.28125 44.578125 
Q 40.484375 46.53125 36.375 47.5 
Q 32.28125 48.484375 27.875 48.484375 
Q 21.1875 48.484375 17.84375 46.4375 
Q 14.5 44.390625 14.5 40.28125 
Q 14.5 37.15625 16.890625 35.375 
Q 19.28125 33.59375 26.515625 31.984375 
L 29.59375 31.296875 
Q 39.15625 29.25 43.1875 25.515625 
Q 47.21875 21.78125 47.21875 15.09375 
Q 47.21875 7.46875 41.1875 3.015625 
Q 35.15625 -1.421875 24.609375 -1.421875 
Q 20.21875 -1.421875 15.453125 -0.5625 
Q 10.6875 0.296875 5.421875 2 
L 5.421875 11.28125 
Q 10.40625 8.6875 15.234375 7.390625 
Q 20.0625 6.109375 24.8125 6.109375 
Q 31.15625 6.109375 34.5625 8.28125 
Q 37.984375 10.453125 37.984375 14.40625 
Q 37.984375 18.0625 35.515625 20.015625 
Q 33.0625 21.96875 24.703125 23.78125 
L 21.578125 24.515625 
Q 13.234375 26.265625 9.515625 29.90625 
Q 5.8125 33.546875 5.8125 39.890625 
Q 5.8125 47.609375 11.28125 51.796875 
Q 16.75 56 26.8125 56 
Q 31.78125 56 36.171875 55.265625 
Q 40.578125 54.546875 44.28125 53.078125 
z
" id="DejaVuSans-115"/>
       <path d="M 18.3125 70.21875 
L 18.3125 54.6875 
L 36.8125 54.6875 
L 36.8125 47.703125 
L 18.3125 47.703125 
L 18.3125 18.015625 
Q 18.3125 11.328125 20.140625 9.421875 
Q 21.96875 7.515625 27.59375 7.515625 
L 36.8125 7.515625 
L 36.8125 0 
L 27.59375 0 
Q 17.1875 0 13.234375 3.875 
Q 9.28125 7.765625 9.28125 18.015625 
L 9.28125 47.703125 
L 2.6875 47.703125 
L 2.6875 54.6875 
L 9.28125 54.6875 
L 9.28125 70.21875 
z
" id="DejaVuSans-116"/>
       <path d="M 18.109375 8.203125 
L 18.109375 -20.796875 
L 9.078125 -20.796875 
L 9.078125 54.6875 
L 18.109375 54.6875 
L 18.109375 46.390625 
Q 20.953125 51.265625 25.265625 53.625 
Q 29.59375 56 35.59375 56 
Q 45.5625 56 51.78125 48.09375 
Q 58.015625 40.1875 58.015625 27.296875 
Q 58.015625 14.40625 51.78125 6.484375 
Q 45.5625 -1.421875 35.59375 -1.421875 
Q 29.59375 -1.421875 25.265625 0.953125 
Q 20.953125 3.328125 18.109375 8.203125 
z
M 48.6875 27.296875 
Q 48.6875 37.203125 44.609375 42.84375 
Q 40.53125 48.484375 33.40625 48.484375 
Q 26.265625 48.484375 22.1875 42.84375 
Q 18.109375 37.203125 18.109375 27.296875 
Q 18.109375 17.390625 22.1875 11.75 
Q 26.265625 6.109375 33.40625 6.109375 
Q 40.53125 6.109375 44.609375 11.75 
Q 48.6875 17.390625 48.6875 27.296875 
z
" id="DejaVuSans-112"/>
      </defs>
      <use xlink:href="#DejaVuSans-84"/>
      <use x="57.958984" xlink:href="#DejaVuSans-105"/>
      <use x="85.742188" xlink:href="#DejaVuSans-109"/>
      <use x="183.154297" xlink:href="#DejaVuSans-101"/>
      <use x="244.677734" xlink:href="#DejaVuSans-32"/>
      <use x="276.464844" xlink:href="#DejaVuSans-115"/>
      <use x="328.564453" xlink:href="#DejaVuSans-116"/>
      <use x="367.773438" xlink:href="#DejaVuSans-101"/>
      <use x="429.296875" xlink:href="#DejaVuSans-112"/>
      <use x="492.773438" xlink:href="#DejaVuSans-115"/>
     </g>
    </g>
   </g>
   <g id="matplotlib.axis_2">
    <g id="ytick_1">
     <g id="line2d_15">
      <path clip-path="url(#p19bffa6e5a)" d="M 54.245 290.369186 
L 448.647743 290.369186 
" style="fill:none;stroke:#b0b0b0;stroke-linecap:square;stroke-width:0.8;"/>
     </g>
     <g id="line2d_16">
      <defs>
       <path d="M 0 0 
L -3.5 0 
" id="mf063e9bcf6" style="stroke:#000000;stroke-width:0.8;"/>
      </defs>
      <g>
       <use style="stroke:#000000;stroke-width:0.8;" x="54.245" xlink:href="#mf063e9bcf6" y="290.369186"/>
      </g>
     </g>
     <g id="text_9">
      <!-- 0.00 -->
      <g transform="translate(24.979375 294.168405)scale(0.1 -0.1)">
       <defs>
        <path d="M 10.6875 12.40625 
L 21 12.40625 
L 21 0 
L 10.6875 0 
z
" id="DejaVuSans-46"/>
       </defs>
       <use xlink:href="#DejaVuSans-48"/>
       <use x="63.623047" xlink:href="#DejaVuSans-46"/>
       <use x="95.410156" xlink:href="#DejaVuSans-48"/>
       <use x="159.033203" xlink:href="#DejaVuSans-48"/>
      </g>
     </g>
    </g>
    <g id="ytick_2">
     <g id="line2d_17">
      <path clip-path="url(#p19bffa6e5a)" d="M 54.245 255.955405 
L 448.647743 255.955405 
" style="fill:none;stroke:#b0b0b0;stroke-linecap:square;stroke-width:0.8;"/>
     </g>
     <g id="line2d_18">
      <g>
       <use style="stroke:#000000;stroke-width:0.8;" x="54.245" xlink:href="#mf063e9bcf6" y="255.955405"/>
      </g>
     </g>
     <g id="text_10">
      <!-- 0.02 -->
      <g transform="translate(24.979375 259.754624)scale(0.1 -0.1)">
       <use xlink:href="#DejaVuSans-48"/>
       <use x="63.623047" xlink:href="#DejaVuSans-46"/>
       <use x="95.410156" xlink:href="#DejaVuSans-48"/>
       <use x="159.033203" xlink:href="#DejaVuSans-50"/>
      </g>
     </g>
    </g>
    <g id="ytick_3">
     <g id="line2d_19">
      <path clip-path="url(#p19bffa6e5a)" d="M 54.245 221.541624 
L 448.647743 221.541624 
" style="fill:none;stroke:#b0b0b0;stroke-linecap:square;stroke-width:0.8;"/>
     </g>
     <g id="line2d_20">
      <g>
       <use style="stroke:#000000;stroke-width:0.8;" x="54.245" xlink:href="#mf063e9bcf6" y="221.541624"/>
      </g>
     </g>
     <g id="text_11">
      <!-- 0.04 -->
      <g transform="translate(24.979375 225.340843)scale(0.1 -0.1)">
       <defs>
        <path d="M 37.796875 64.3125 
L 12.890625 25.390625 
L 37.796875 25.390625 
z
M 35.203125 72.90625 
L 47.609375 72.90625 
L 47.609375 25.390625 
L 58.015625 25.390625 
L 58.015625 17.1875 
L 47.609375 17.1875 
L 47.609375 0 
L 37.796875 0 
L 37.796875 17.1875 
L 4.890625 17.1875 
L 4.890625 26.703125 
z
" id="DejaVuSans-52"/>
       </defs>
       <use xlink:href="#DejaVuSans-48"/>
       <use x="63.623047" xlink:href="#DejaVuSans-46"/>
       <use x="95.410156" xlink:href="#DejaVuSans-48"/>
       <use x="159.033203" xlink:href="#DejaVuSans-52"/>
      </g>
     </g>
    </g>
    <g id="ytick_4">
     <g id="line2d_21">
      <path clip-path="url(#p19bffa6e5a)" d="M 54.245 187.127844 
L 448.647743 187.127844 
" style="fill:none;stroke:#b0b0b0;stroke-linecap:square;stroke-width:0.8;"/>
     </g>
     <g id="line2d_22">
      <g>
       <use style="stroke:#000000;stroke-width:0.8;" x="54.245" xlink:href="#mf063e9bcf6" y="187.127844"/>
      </g>
     </g>
     <g id="text_12">
      <!-- 0.06 -->
      <g transform="translate(24.979375 190.927062)scale(0.1 -0.1)">
       <defs>
        <path d="M 33.015625 40.375 
Q 26.375 40.375 22.484375 35.828125 
Q 18.609375 31.296875 18.609375 23.390625 
Q 18.609375 15.53125 22.484375 10.953125 
Q 26.375 6.390625 33.015625 6.390625 
Q 39.65625 6.390625 43.53125 10.953125 
Q 47.40625 15.53125 47.40625 23.390625 
Q 47.40625 31.296875 43.53125 35.828125 
Q 39.65625 40.375 33.015625 40.375 
z
M 52.59375 71.296875 
L 52.59375 62.3125 
Q 48.875 64.0625 45.09375 64.984375 
Q 41.3125 65.921875 37.59375 65.921875 
Q 27.828125 65.921875 22.671875 59.328125 
Q 17.53125 52.734375 16.796875 39.40625 
Q 19.671875 43.65625 24.015625 45.921875 
Q 28.375 48.1875 33.59375 48.1875 
Q 44.578125 48.1875 50.953125 41.515625 
Q 57.328125 34.859375 57.328125 23.390625 
Q 57.328125 12.15625 50.6875 5.359375 
Q 44.046875 -1.421875 33.015625 -1.421875 
Q 20.359375 -1.421875 13.671875 8.265625 
Q 6.984375 17.96875 6.984375 36.375 
Q 6.984375 53.65625 15.1875 63.9375 
Q 23.390625 74.21875 37.203125 74.21875 
Q 40.921875 74.21875 44.703125 73.484375 
Q 48.484375 72.75 52.59375 71.296875 
z
" id="DejaVuSans-54"/>
       </defs>
       <use xlink:href="#DejaVuSans-48"/>
       <use x="63.623047" xlink:href="#DejaVuSans-46"/>
       <use x="95.410156" xlink:href="#DejaVuSans-48"/>
       <use x="159.033203" xlink:href="#DejaVuSans-54"/>
      </g>
     </g>
    </g>
    <g id="ytick_5">
     <g id="line2d_23">
      <path clip-path="url(#p19bffa6e5a)" d="M 54.245 152.714063 
L 448.647743 152.714063 
" style="fill:none;stroke:#b0b0b0;stroke-linecap:square;stroke-width:0.8;"/>
     </g>
     <g id="line2d_24">
      <g>
       <use style="stroke:#000000;stroke-width:0.8;" x="54.245" xlink:href="#mf063e9bcf6" y="152.714063"/>
      </g>
     </g>
     <g id="text_13">
      <!-- 0.08 -->
      <g transform="translate(24.979375 156.513282)scale(0.1 -0.1)">
       <defs>
        <path d="M 31.78125 34.625 
Q 24.75 34.625 20.71875 30.859375 
Q 16.703125 27.09375 16.703125 20.515625 
Q 16.703125 13.921875 20.71875 10.15625 
Q 24.75 6.390625 31.78125 6.390625 
Q 38.8125 6.390625 42.859375 10.171875 
Q 46.921875 13.96875 46.921875 20.515625 
Q 46.921875 27.09375 42.890625 30.859375 
Q 38.875 34.625 31.78125 34.625 
z
M 21.921875 38.8125 
Q 15.578125 40.375 12.03125 44.71875 
Q 8.5 49.078125 8.5 55.328125 
Q 8.5 64.0625 14.71875 69.140625 
Q 20.953125 74.21875 31.78125 74.21875 
Q 42.671875 74.21875 48.875 69.140625 
Q 55.078125 64.0625 55.078125 55.328125 
Q 55.078125 49.078125 51.53125 44.71875 
Q 48 40.375 41.703125 38.8125 
Q 48.828125 37.15625 52.796875 32.3125 
Q 56.78125 27.484375 56.78125 20.515625 
Q 56.78125 9.90625 50.3125 4.234375 
Q 43.84375 -1.421875 31.78125 -1.421875 
Q 19.734375 -1.421875 13.25 4.234375 
Q 6.78125 9.90625 6.78125 20.515625 
Q 6.78125 27.484375 10.78125 32.3125 
Q 14.796875 37.15625 21.921875 38.8125 
z
M 18.3125 54.390625 
Q 18.3125 48.734375 21.84375 45.5625 
Q 25.390625 42.390625 31.78125 42.390625 
Q 38.140625 42.390625 41.71875 45.5625 
Q 45.3125 48.734375 45.3125 54.390625 
Q 45.3125 60.0625 41.71875 63.234375 
Q 38.140625 66.40625 31.78125 66.40625 
Q 25.390625 66.40625 21.84375 63.234375 
Q 18.3125 60.0625 18.3125 54.390625 
z
" id="DejaVuSans-56"/>
       </defs>
       <use xlink:href="#DejaVuSans-48"/>
       <use x="63.623047" xlink:href="#DejaVuSans-46"/>
       <use x="95.410156" xlink:href="#DejaVuSans-48"/>
       <use x="159.033203" xlink:href="#DejaVuSans-56"/>
      </g>
     </g>
    </g>
    <g id="ytick_6">
     <g id="line2d_25">
      <path clip-path="url(#p19bffa6e5a)" d="M 54.245 118.300282 
L 448.647743 118.300282 
" style="fill:none;stroke:#b0b0b0;stroke-linecap:square;stroke-width:0.8;"/>
     </g>
     <g id="line2d_26">
      <g>
       <use style="stroke:#000000;stroke-width:0.8;" x="54.245" xlink:href="#mf063e9bcf6" y="118.300282"/>
      </g>
     </g>
     <g id="text_14">
      <!-- 0.10 -->
      <g transform="translate(24.979375 122.099501)scale(0.1 -0.1)">
       <use xlink:href="#DejaVuSans-48"/>
       <use x="63.623047" xlink:href="#DejaVuSans-46"/>
       <use x="95.410156" xlink:href="#DejaVuSans-49"/>
       <use x="159.033203" xlink:href="#DejaVuSans-48"/>
      </g>
     </g>
    </g>
    <g id="ytick_7">
     <g id="line2d_27">
      <path clip-path="url(#p19bffa6e5a)" d="M 54.245 83.886501 
L 448.647743 83.886501 
" style="fill:none;stroke:#b0b0b0;stroke-linecap:square;stroke-width:0.8;"/>
     </g>
     <g id="line2d_28">
      <g>
       <use style="stroke:#000000;stroke-width:0.8;" x="54.245" xlink:href="#mf063e9bcf6" y="83.886501"/>
      </g>
     </g>
     <g id="text_15">
      <!-- 0.12 -->
      <g transform="translate(24.979375 87.68572)scale(0.1 -0.1)">
       <use xlink:href="#DejaVuSans-48"/>
       <use x="63.623047" xlink:href="#DejaVuSans-46"/>
       <use x="95.410156" xlink:href="#DejaVuSans-49"/>
       <use x="159.033203" xlink:href="#DejaVuSans-50"/>
      </g>
     </g>
    </g>
    <g id="ytick_8">
     <g id="line2d_29">
      <path clip-path="url(#p19bffa6e5a)" d="M 54.245 49.472721 
L 448.647743 49.472721 
" style="fill:none;stroke:#b0b0b0;stroke-linecap:square;stroke-width:0.8;"/>
     </g>
     <g id="line2d_30">
      <g>
       <use style="stroke:#000000;stroke-width:0.8;" x="54.245" xlink:href="#mf063e9bcf6" y="49.472721"/>
      </g>
     </g>
     <g id="text_16">
      <!-- 0.14 -->
      <g transform="translate(24.979375 53.271939)scale(0.1 -0.1)">
       <use xlink:href="#DejaVuSans-48"/>
       <use x="63.623047" xlink:href="#DejaVuSans-46"/>
       <use x="95.410156" xlink:href="#DejaVuSans-49"/>
       <use x="159.033203" xlink:href="#DejaVuSans-52"/>
      </g>
     </g>
    </g>
    <g id="ytick_9">
     <g id="line2d_31">
      <path clip-path="url(#p19bffa6e5a)" d="M 54.245 15.05894 
L 448.647743 15.05894 
" style="fill:none;stroke:#b0b0b0;stroke-linecap:square;stroke-width:0.8;"/>
     </g>
     <g id="line2d_32">
      <g>
       <use style="stroke:#000000;stroke-width:0.8;" x="54.245" xlink:href="#mf063e9bcf6" y="15.05894"/>
      </g>
     </g>
     <g id="text_17">
      <!-- 0.16 -->
      <g transform="translate(24.979375 18.858159)scale(0.1 -0.1)">
       <use xlink:href="#DejaVuSans-48"/>
       <use x="63.623047" xlink:href="#DejaVuSans-46"/>
       <use x="95.410156" xlink:href="#DejaVuSans-49"/>
       <use x="159.033203" xlink:href="#DejaVuSans-54"/>
      </g>
     </g>
    </g>
    <g id="text_18">
     <!-- Density distribution -->
     <g transform="translate(18.899688 206.751669)rotate(-90)scale(0.1 -0.1)">
      <defs>
       <path d="M 19.671875 64.796875 
L 19.671875 8.109375 
L 31.59375 8.109375 
Q 46.6875 8.109375 53.6875 14.9375 
Q 60.6875 21.78125 60.6875 36.53125 
Q 60.6875 51.171875 53.6875 57.984375 
Q 46.6875 64.796875 31.59375 64.796875 
z
M 9.8125 72.90625 
L 30.078125 72.90625 
Q 51.265625 72.90625 61.171875 64.09375 
Q 71.09375 55.28125 71.09375 36.53125 
Q 71.09375 17.671875 61.125 8.828125 
Q 51.171875 0 30.078125 0 
L 9.8125 0 
z
" id="DejaVuSans-68"/>
       <path d="M 54.890625 33.015625 
L 54.890625 0 
L 45.90625 0 
L 45.90625 32.71875 
Q 45.90625 40.484375 42.875 44.328125 
Q 39.84375 48.1875 33.796875 48.1875 
Q 26.515625 48.1875 22.3125 43.546875 
Q 18.109375 38.921875 18.109375 30.90625 
L 18.109375 0 
L 9.078125 0 
L 9.078125 54.6875 
L 18.109375 54.6875 
L 18.109375 46.1875 
Q 21.34375 51.125 25.703125 53.5625 
Q 30.078125 56 35.796875 56 
Q 45.21875 56 50.046875 50.171875 
Q 54.890625 44.34375 54.890625 33.015625 
z
" id="DejaVuSans-110"/>
       <path d="M 32.171875 -5.078125 
Q 28.375 -14.84375 24.75 -17.8125 
Q 21.140625 -20.796875 15.09375 -20.796875 
L 7.90625 -20.796875 
L 7.90625 -13.28125 
L 13.1875 -13.28125 
Q 16.890625 -13.28125 18.9375 -11.515625 
Q 21 -9.765625 23.484375 -3.21875 
L 25.09375 0.875 
L 2.984375 54.6875 
L 12.5 54.6875 
L 29.59375 11.921875 
L 46.6875 54.6875 
L 56.203125 54.6875 
z
" id="DejaVuSans-121"/>
       <path d="M 45.40625 46.390625 
L 45.40625 75.984375 
L 54.390625 75.984375 
L 54.390625 0 
L 45.40625 0 
L 45.40625 8.203125 
Q 42.578125 3.328125 38.25 0.953125 
Q 33.9375 -1.421875 27.875 -1.421875 
Q 17.96875 -1.421875 11.734375 6.484375 
Q 5.515625 14.40625 5.515625 27.296875 
Q 5.515625 40.1875 11.734375 48.09375 
Q 17.96875 56 27.875 56 
Q 33.9375 56 38.25 53.625 
Q 42.578125 51.265625 45.40625 46.390625 
z
M 14.796875 27.296875 
Q 14.796875 17.390625 18.875 11.75 
Q 22.953125 6.109375 30.078125 6.109375 
Q 37.203125 6.109375 41.296875 11.75 
Q 45.40625 17.390625 45.40625 27.296875 
Q 45.40625 37.203125 41.296875 42.84375 
Q 37.203125 48.484375 30.078125 48.484375 
Q 22.953125 48.484375 18.875 42.84375 
Q 14.796875 37.203125 14.796875 27.296875 
z
" id="DejaVuSans-100"/>
       <path d="M 41.109375 46.296875 
Q 39.59375 47.171875 37.8125 47.578125 
Q 36.03125 48 33.890625 48 
Q 26.265625 48 22.1875 43.046875 
Q 18.109375 38.09375 18.109375 28.8125 
L 18.109375 0 
L 9.078125 0 
L 9.078125 54.6875 
L 18.109375 54.6875 
L 18.109375 46.1875 
Q 20.953125 51.171875 25.484375 53.578125 
Q 30.03125 56 36.53125 56 
Q 37.453125 56 38.578125 55.875 
Q 39.703125 55.765625 41.0625 55.515625 
z
" id="DejaVuSans-114"/>
       <path d="M 48.6875 27.296875 
Q 48.6875 37.203125 44.609375 42.84375 
Q 40.53125 48.484375 33.40625 48.484375 
Q 26.265625 48.484375 22.1875 42.84375 
Q 18.109375 37.203125 18.109375 27.296875 
Q 18.109375 17.390625 22.1875 11.75 
Q 26.265625 6.109375 33.40625 6.109375 
Q 40.53125 6.109375 44.609375 11.75 
Q 48.6875 17.390625 48.6875 27.296875 
z
M 18.109375 46.390625 
Q 20.953125 51.265625 25.265625 53.625 
Q 29.59375 56 35.59375 56 
Q 45.5625 56 51.78125 48.09375 
Q 58.015625 40.1875 58.015625 27.296875 
Q 58.015625 14.40625 51.78125 6.484375 
Q 45.5625 -1.421875 35.59375 -1.421875 
Q 29.59375 -1.421875 25.265625 0.953125 
Q 20.953125 3.328125 18.109375 8.203125 
L 18.109375 0 
L 9.078125 0 
L 9.078125 75.984375 
L 18.109375 75.984375 
z
" id="DejaVuSans-98"/>
       <path d="M 8.5 21.578125 
L 8.5 54.6875 
L 17.484375 54.6875 
L 17.484375 21.921875 
Q 17.484375 14.15625 20.5 10.265625 
Q 23.53125 6.390625 29.59375 6.390625 
Q 36.859375 6.390625 41.078125 11.03125 
Q 45.3125 15.671875 45.3125 23.6875 
L 45.3125 54.6875 
L 54.296875 54.6875 
L 54.296875 0 
L 45.3125 0 
L 45.3125 8.40625 
Q 42.046875 3.421875 37.71875 1 
Q 33.40625 -1.421875 27.6875 -1.421875 
Q 18.265625 -1.421875 13.375 4.4375 
Q 8.5 10.296875 8.5 21.578125 
z
M 31.109375 56 
z
" id="DejaVuSans-117"/>
       <path d="M 30.609375 48.390625 
Q 23.390625 48.390625 19.1875 42.75 
Q 14.984375 37.109375 14.984375 27.296875 
Q 14.984375 17.484375 19.15625 11.84375 
Q 23.34375 6.203125 30.609375 6.203125 
Q 37.796875 6.203125 41.984375 11.859375 
Q 46.1875 17.53125 46.1875 27.296875 
Q 46.1875 37.015625 41.984375 42.703125 
Q 37.796875 48.390625 30.609375 48.390625 
z
M 30.609375 56 
Q 42.328125 56 49.015625 48.375 
Q 55.71875 40.765625 55.71875 27.296875 
Q 55.71875 13.875 49.015625 6.21875 
Q 42.328125 -1.421875 30.609375 -1.421875 
Q 18.84375 -1.421875 12.171875 6.21875 
Q 5.515625 13.875 5.515625 27.296875 
Q 5.515625 40.765625 12.171875 48.375 
Q 18.84375 56 30.609375 56 
z
" id="DejaVuSans-111"/>
      </defs>
      <use xlink:href="#DejaVuSans-68"/>
      <use x="77.001953" xlink:href="#DejaVuSans-101"/>
      <use x="138.525391" xlink:href="#DejaVuSans-110"/>
      <use x="201.904297" xlink:href="#DejaVuSans-115"/>
      <use x="254.003906" xlink:href="#DejaVuSans-105"/>
      <use x="281.787109" xlink:href="#DejaVuSans-116"/>
      <use x="320.996094" xlink:href="#DejaVuSans-121"/>
      <use x="380.175781" xlink:href="#DejaVuSans-32"/>
      <use x="411.962891" xlink:href="#DejaVuSans-100"/>
      <use x="475.439453" xlink:href="#DejaVuSans-105"/>
      <use x="503.222656" xlink:href="#DejaVuSans-115"/>
      <use x="555.322266" xlink:href="#DejaVuSans-116"/>
      <use x="594.53125" xlink:href="#DejaVuSans-114"/>
      <use x="635.644531" xlink:href="#DejaVuSans-105"/>
      <use x="663.427734" xlink:href="#DejaVuSans-98"/>
      <use x="726.904297" xlink:href="#DejaVuSans-117"/>
      <use x="790.283203" xlink:href="#DejaVuSans-116"/>
      <use x="829.492188" xlink:href="#DejaVuSans-105"/>
      <use x="857.275391" xlink:href="#DejaVuSans-111"/>
      <use x="918.457031" xlink:href="#DejaVuSans-110"/>
     </g>
    </g>
   </g>
   <g id="line2d_33">
    <path clip-path="url(#p19bffa6e5a)" d="M 72.172397 290.369186 
L 84.53612 290.369186 
L 96.899842 290.369186 
L 109.263564 290.369186 
L 121.627287 29.512728 
L 133.991009 37.341863 
L 146.354732 33.81445 
L 158.718454 31.061348 
L 171.082176 290.369186 
L 183.445899 290.369186 
L 195.809621 290.369186 
L 208.173343 290.369186 
L 220.537066 290.369186 
L 232.900788 290.369186 
L 245.26451 290.369186 
L 257.628233 290.369186 
L 269.991955 290.369186 
L 282.355677 290.369186 
L 294.7194 290.369186 
L 307.083122 290.369186 
L 319.446844 290.369186 
L 331.810567 290.369186 
L 344.174289 290.369186 
L 356.538011 290.369186 
L 368.901734 290.369186 
L 381.265456 290.369186 
L 393.629178 290.369186 
L 405.992901 290.369186 
L 418.356623 290.369186 
L 430.720346 290.369186 
" style="fill:none;stroke:#0000ff;stroke-linecap:square;stroke-width:2;"/>
    <defs>
     <path d="M 0 -2 
L -0.449028 -0.618034 
L -1.902113 -0.618034 
L -0.726543 0.236068 
L -1.175571 1.618034 
L -0 0.763932 
L 1.175571 1.618034 
L 0.726543 0.236068 
L 1.902113 -0.618034 
L 0.449028 -0.618034 
z
" id="mfc4ab7b80b" style="stroke:#0000ff;stroke-linejoin:bevel;"/>
    </defs>
    <g clip-path="url(#p19bffa6e5a)">
     <use style="fill:#0000ff;stroke:#0000ff;stroke-linejoin:bevel;" x="72.172397" xlink:href="#mfc4ab7b80b" y="290.369186"/>
     <use style="fill:#0000ff;stroke:#0000ff;stroke-linejoin:bevel;" x="84.53612" xlink:href="#mfc4ab7b80b" y="290.369186"/>
     <use style="fill:#0000ff;stroke:#0000ff;stroke-linejoin:bevel;" x="96.899842" xlink:href="#mfc4ab7b80b" y="290.369186"/>
     <use style="fill:#0000ff;stroke:#0000ff;stroke-linejoin:bevel;" x="109.263564" xlink:href="#mfc4ab7b80b" y="290.369186"/>
     <use style="fill:#0000ff;stroke:#0000ff;stroke-linejoin:bevel;" x="121.627287" xlink:href="#mfc4ab7b80b" y="29.512728"/>
     <use style="fill:#0000ff;stroke:#0000ff;stroke-linejoin:bevel;" x="133.991009" xlink:href="#mfc4ab7b80b" y="37.341863"/>
     <use style="fill:#0000ff;stroke:#0000ff;stroke-linejoin:bevel;" x="146.354732" xlink:href="#mfc4ab7b80b" y="33.81445"/>
     <use style="fill:#0000ff;stroke:#0000ff;stroke-linejoin:bevel;" x="158.718454" xlink:href="#mfc4ab7b80b" y="31.061348"/>
     <use style="fill:#0000ff;stroke:#0000ff;stroke-linejoin:bevel;" x="171.082176" xlink:href="#mfc4ab7b80b" y="290.369186"/>
     <use style="fill:#0000ff;stroke:#0000ff;stroke-linejoin:bevel;" x="183.445899" xlink:href="#mfc4ab7b80b" y="290.369186"/>
     <use style="fill:#0000ff;stroke:#0000ff;stroke-linejoin:bevel;" x="195.809621" xlink:href="#mfc4ab7b80b" y="290.369186"/>
     <use style="fill:#0000ff;stroke:#0000ff;stroke-linejoin:bevel;" x="208.173343" xlink:href="#mfc4ab7b80b" y="290.369186"/>
     <use style="fill:#0000ff;stroke:#0000ff;stroke-linejoin:bevel;" x="220.537066" xlink:href="#mfc4ab7b80b" y="290.369186"/>
     <use style="fill:#0000ff;stroke:#0000ff;stroke-linejoin:bevel;" x="232.900788" xlink:href="#mfc4ab7b80b" y="290.369186"/>
     <use style="fill:#0000ff;stroke:#0000ff;stroke-linejoin:bevel;" x="245.26451" xlink:href="#mfc4ab7b80b" y="290.369186"/>
     <use style="fill:#0000ff;stroke:#0000ff;stroke-linejoin:bevel;" x="257.628233" xlink:href="#mfc4ab7b80b" y="290.369186"/>
     <use style="fill:#0000ff;stroke:#0000ff;stroke-linejoin:bevel;" x="269.991955" xlink:href="#mfc4ab7b80b" y="290.369186"/>
     <use style="fill:#0000ff;stroke:#0000ff;stroke-linejoin:bevel;" x="282.355677" xlink:href="#mfc4ab7b80b" y="290.369186"/>
     <use style="fill:#0000ff;stroke:#0000ff;stroke-linejoin:bevel;" x="294.7194" xlink:href="#mfc4ab7b80b" y="290.369186"/>
     <use style="fill:#0000ff;stroke:#0000ff;stroke-linejoin:bevel;" x="307.083122" xlink:href="#mfc4ab7b80b" y="290.369186"/>
     <use style="fill:#0000ff;stroke:#0000ff;stroke-linejoin:bevel;" x="319.446844" xlink:href="#mfc4ab7b80b" y="290.369186"/>
     <use style="fill:#0000ff;stroke:#0000ff;stroke-linejoin:bevel;" x="331.810567" xlink:href="#mfc4ab7b80b" y="290.369186"/>
     <use style="fill:#0000ff;stroke:#0000ff;stroke-linejoin:bevel;" x="344.174289" xlink:href="#mfc4ab7b80b" y="290.369186"/>
     <use style="fill:#0000ff;stroke:#0000ff;stroke-linejoin:bevel;" x="356.538011" xlink:href="#mfc4ab7b80b" y="290.369186"/>
     <use style="fill:#0000ff;stroke:#0000ff;stroke-linejoin:bevel;" x="368.901734" xlink:href="#mfc4ab7b80b" y="290.369186"/>
     <use style="fill:#0000ff;stroke:#0000ff;stroke-linejoin:bevel;" x="381.265456" xlink:href="#mfc4ab7b80b" y="290.369186"/>
     <use style="fill:#0000ff;stroke:#0000ff;stroke-linejoin:bevel;" x="393.629178" xlink:href="#mfc4ab7b80b" y="290.369186"/>
     <use style="fill:#0000ff;stroke:#0000ff;stroke-linejoin:bevel;" x="405.992901" xlink:href="#mfc4ab7b80b" y="290.369186"/>
     <use style="fill:#0000ff;stroke:#0000ff;stroke-linejoin:bevel;" x="418.356623" xlink:href="#mfc4ab7b80b" y="290.369186"/>
     <use style="fill:#0000ff;stroke:#0000ff;stroke-linejoin:bevel;" x="430.720346" xlink:href="#mfc4ab7b80b" y="290.369186"/>
    </g>
   </g>
   <g id="line2d_34">
    <path clip-path="url(#p19bffa6e5a)" d="M 72.172397 290.369186 
L 84.53612 29.512728 
L 96.899842 204.162665 
L 109.263564 31.49152 
L 121.627287 290.369186 
L 133.991009 290.369186 
L 146.354732 138.346309 
L 158.718454 48.612376 
L 171.082176 290.369186 
L 183.445899 290.369186 
L 195.809621 48.612376 
L 208.173343 290.369186 
L 220.537066 45.515136 
L 232.900788 191.085428 
L 245.26451 45.515136 
L 257.628233 191.085428 
L 269.991955 45.515136 
L 282.355677 191.085428 
L 294.7194 45.515136 
L 307.083122 191.085428 
L 319.446844 45.515136 
L 331.810567 191.085428 
L 344.174289 45.515136 
L 356.538011 191.085428 
L 368.901734 45.515136 
L 381.265456 191.085428 
L 393.629178 45.515136 
L 405.992901 191.085428 
L 418.356623 45.515136 
L 430.720346 191.085428 
" style="fill:none;stroke:#008000;stroke-linecap:square;stroke-width:2;"/>
    <defs>
     <path d="M -0 2.828427 
L 2.828427 0 
L 0 -2.828427 
L -2.828427 -0 
z
" id="m43c7a8113d" style="stroke:#008000;stroke-linejoin:miter;"/>
    </defs>
    <g clip-path="url(#p19bffa6e5a)">
     <use style="fill:#008000;stroke:#008000;stroke-linejoin:miter;" x="72.172397" xlink:href="#m43c7a8113d" y="290.369186"/>
     <use style="fill:#008000;stroke:#008000;stroke-linejoin:miter;" x="84.53612" xlink:href="#m43c7a8113d" y="29.512728"/>
     <use style="fill:#008000;stroke:#008000;stroke-linejoin:miter;" x="96.899842" xlink:href="#m43c7a8113d" y="204.162665"/>
     <use style="fill:#008000;stroke:#008000;stroke-linejoin:miter;" x="109.263564" xlink:href="#m43c7a8113d" y="31.49152"/>
     <use style="fill:#008000;stroke:#008000;stroke-linejoin:miter;" x="121.627287" xlink:href="#m43c7a8113d" y="290.369186"/>
     <use style="fill:#008000;stroke:#008000;stroke-linejoin:miter;" x="133.991009" xlink:href="#m43c7a8113d" y="290.369186"/>
     <use style="fill:#008000;stroke:#008000;stroke-linejoin:miter;" x="146.354732" xlink:href="#m43c7a8113d" y="138.346309"/>
     <use style="fill:#008000;stroke:#008000;stroke-linejoin:miter;" x="158.718454" xlink:href="#m43c7a8113d" y="48.612376"/>
     <use style="fill:#008000;stroke:#008000;stroke-linejoin:miter;" x="171.082176" xlink:href="#m43c7a8113d" y="290.369186"/>
     <use style="fill:#008000;stroke:#008000;stroke-linejoin:miter;" x="183.445899" xlink:href="#m43c7a8113d" y="290.369186"/>
     <use style="fill:#008000;stroke:#008000;stroke-linejoin:miter;" x="195.809621" xlink:href="#m43c7a8113d" y="48.612376"/>
     <use style="fill:#008000;stroke:#008000;stroke-linejoin:miter;" x="208.173343" xlink:href="#m43c7a8113d" y="290.369186"/>
     <use style="fill:#008000;stroke:#008000;stroke-linejoin:miter;" x="220.537066" xlink:href="#m43c7a8113d" y="45.515136"/>
     <use style="fill:#008000;stroke:#008000;stroke-linejoin:miter;" x="232.900788" xlink:href="#m43c7a8113d" y="191.085428"/>
     <use style="fill:#008000;stroke:#008000;stroke-linejoin:miter;" x="245.26451" xlink:href="#m43c7a8113d" y="45.515136"/>
     <use style="fill:#008000;stroke:#008000;stroke-linejoin:miter;" x="257.628233" xlink:href="#m43c7a8113d" y="191.085428"/>
     <use style="fill:#008000;stroke:#008000;stroke-linejoin:miter;" x="269.991955" xlink:href="#m43c7a8113d" y="45.515136"/>
     <use style="fill:#008000;stroke:#008000;stroke-linejoin:miter;" x="282.355677" xlink:href="#m43c7a8113d" y="191.085428"/>
     <use style="fill:#008000;stroke:#008000;stroke-linejoin:miter;" x="294.7194" xlink:href="#m43c7a8113d" y="45.515136"/>
     <use style="fill:#008000;stroke:#008000;stroke-linejoin:miter;" x="307.083122" xlink:href="#m43c7a8113d" y="191.085428"/>
     <use style="fill:#008000;stroke:#008000;stroke-linejoin:miter;" x="319.446844" xlink:href="#m43c7a8113d" y="45.515136"/>
     <use style="fill:#008000;stroke:#008000;stroke-linejoin:miter;" x="331.810567" xlink:href="#m43c7a8113d" y="191.085428"/>
     <use style="fill:#008000;stroke:#008000;stroke-linejoin:miter;" x="344.174289" xlink:href="#m43c7a8113d" y="45.515136"/>
     <use style="fill:#008000;stroke:#008000;stroke-linejoin:miter;" x="356.538011" xlink:href="#m43c7a8113d" y="191.085428"/>
     <use style="fill:#008000;stroke:#008000;stroke-linejoin:miter;" x="368.901734" xlink:href="#m43c7a8113d" y="45.515136"/>
     <use style="fill:#008000;stroke:#008000;stroke-linejoin:miter;" x="381.265456" xlink:href="#m43c7a8113d" y="191.085428"/>
     <use style="fill:#008000;stroke:#008000;stroke-linejoin:miter;" x="393.629178" xlink:href="#m43c7a8113d" y="45.515136"/>
     <use style="fill:#008000;stroke:#008000;stroke-linejoin:miter;" x="405.992901" xlink:href="#m43c7a8113d" y="191.085428"/>
     <use style="fill:#008000;stroke:#008000;stroke-linejoin:miter;" x="418.356623" xlink:href="#m43c7a8113d" y="45.515136"/>
     <use style="fill:#008000;stroke:#008000;stroke-linejoin:miter;" x="430.720346" xlink:href="#m43c7a8113d" y="191.085428"/>
    </g>
   </g>
   <g id="line2d_35">
    <path clip-path="url(#p19bffa6e5a)" d="M 72.172397 290.369186 
L 84.53612 37.944104 
L 96.899842 37.599966 
L 109.263564 24.952902 
L 121.627287 290.369186 
L 133.991009 290.369186 
L 146.354732 200.635252 
L 158.718454 290.369186 
L 171.082176 290.369186 
L 183.445899 290.369186 
L 195.809621 290.369186 
L 208.173343 290.369186 
L 220.537066 290.369186 
L 232.900788 45.515136 
L 245.26451 191.085428 
L 257.628233 45.515136 
L 269.991955 191.085428 
L 282.355677 45.515136 
L 294.7194 191.085428 
L 307.083122 45.515136 
L 319.446844 191.085428 
L 331.810567 45.515136 
L 344.174289 191.085428 
L 356.538011 45.515136 
L 368.901734 191.085428 
L 381.265456 45.515136 
L 393.629178 191.085428 
L 405.992901 45.515136 
L 418.356623 191.085428 
L 430.720346 45.515136 
" style="fill:none;stroke:#00ffff;stroke-linecap:square;stroke-width:2;"/>
    <defs>
     <path d="M 0 -2 
L -2 2 
L 2 2 
z
" id="ma6aea6da43" style="stroke:#00ffff;stroke-linejoin:miter;"/>
    </defs>
    <g clip-path="url(#p19bffa6e5a)">
     <use style="fill:#00ffff;stroke:#00ffff;stroke-linejoin:miter;" x="72.172397" xlink:href="#ma6aea6da43" y="290.369186"/>
     <use style="fill:#00ffff;stroke:#00ffff;stroke-linejoin:miter;" x="84.53612" xlink:href="#ma6aea6da43" y="37.944104"/>
     <use style="fill:#00ffff;stroke:#00ffff;stroke-linejoin:miter;" x="96.899842" xlink:href="#ma6aea6da43" y="37.599966"/>
     <use style="fill:#00ffff;stroke:#00ffff;stroke-linejoin:miter;" x="109.263564" xlink:href="#ma6aea6da43" y="24.952902"/>
     <use style="fill:#00ffff;stroke:#00ffff;stroke-linejoin:miter;" x="121.627287" xlink:href="#ma6aea6da43" y="290.369186"/>
     <use style="fill:#00ffff;stroke:#00ffff;stroke-linejoin:miter;" x="133.991009" xlink:href="#ma6aea6da43" y="290.369186"/>
     <use style="fill:#00ffff;stroke:#00ffff;stroke-linejoin:miter;" x="146.354732" xlink:href="#ma6aea6da43" y="200.635252"/>
     <use style="fill:#00ffff;stroke:#00ffff;stroke-linejoin:miter;" x="158.718454" xlink:href="#ma6aea6da43" y="290.369186"/>
     <use style="fill:#00ffff;stroke:#00ffff;stroke-linejoin:miter;" x="171.082176" xlink:href="#ma6aea6da43" y="290.369186"/>
     <use style="fill:#00ffff;stroke:#00ffff;stroke-linejoin:miter;" x="183.445899" xlink:href="#ma6aea6da43" y="290.369186"/>
     <use style="fill:#00ffff;stroke:#00ffff;stroke-linejoin:miter;" x="195.809621" xlink:href="#ma6aea6da43" y="290.369186"/>
     <use style="fill:#00ffff;stroke:#00ffff;stroke-linejoin:miter;" x="208.173343" xlink:href="#ma6aea6da43" y="290.369186"/>
     <use style="fill:#00ffff;stroke:#00ffff;stroke-linejoin:miter;" x="220.537066" xlink:href="#ma6aea6da43" y="290.369186"/>
     <use style="fill:#00ffff;stroke:#00ffff;stroke-linejoin:miter;" x="232.900788" xlink:href="#ma6aea6da43" y="45.515136"/>
     <use style="fill:#00ffff;stroke:#00ffff;stroke-linejoin:miter;" x="245.26451" xlink:href="#ma6aea6da43" y="191.085428"/>
     <use style="fill:#00ffff;stroke:#00ffff;stroke-linejoin:miter;" x="257.628233" xlink:href="#ma6aea6da43" y="45.515136"/>
     <use style="fill:#00ffff;stroke:#00ffff;stroke-linejoin:miter;" x="269.991955" xlink:href="#ma6aea6da43" y="191.085428"/>
     <use style="fill:#00ffff;stroke:#00ffff;stroke-linejoin:miter;" x="282.355677" xlink:href="#ma6aea6da43" y="45.515136"/>
     <use style="fill:#00ffff;stroke:#00ffff;stroke-linejoin:miter;" x="294.7194" xlink:href="#ma6aea6da43" y="191.085428"/>
     <use style="fill:#00ffff;stroke:#00ffff;stroke-linejoin:miter;" x="307.083122" xlink:href="#ma6aea6da43" y="45.515136"/>
     <use style="fill:#00ffff;stroke:#00ffff;stroke-linejoin:miter;" x="319.446844" xlink:href="#ma6aea6da43" y="191.085428"/>
     <use style="fill:#00ffff;stroke:#00ffff;stroke-linejoin:miter;" x="331.810567" xlink:href="#ma6aea6da43" y="45.515136"/>
     <use style="fill:#00ffff;stroke:#00ffff;stroke-linejoin:miter;" x="344.174289" xlink:href="#ma6aea6da43" y="191.085428"/>
     <use style="fill:#00ffff;stroke:#00ffff;stroke-linejoin:miter;" x="356.538011" xlink:href="#ma6aea6da43" y="45.515136"/>
     <use style="fill:#00ffff;stroke:#00ffff;stroke-linejoin:miter;" x="368.901734" xlink:href="#ma6aea6da43" y="191.085428"/>
     <use style="fill:#00ffff;stroke:#00ffff;stroke-linejoin:miter;" x="381.265456" xlink:href="#ma6aea6da43" y="45.515136"/>
     <use style="fill:#00ffff;stroke:#00ffff;stroke-linejoin:miter;" x="393.629178" xlink:href="#ma6aea6da43" y="191.085428"/>
     <use style="fill:#00ffff;stroke:#00ffff;stroke-linejoin:miter;" x="405.992901" xlink:href="#ma6aea6da43" y="45.515136"/>
     <use style="fill:#00ffff;stroke:#00ffff;stroke-linejoin:miter;" x="418.356623" xlink:href="#ma6aea6da43" y="191.085428"/>
     <use style="fill:#00ffff;stroke:#00ffff;stroke-linejoin:miter;" x="430.720346" xlink:href="#ma6aea6da43" y="45.515136"/>
    </g>
   </g>
   <g id="line2d_36">
    <path clip-path="url(#p19bffa6e5a)" d="M 72.172397 290.369186 
L 84.53612 290.369186 
L 96.899842 290.369186 
L 109.263564 290.369186 
L 121.627287 204.764906 
L 133.991009 290.369186 
L 146.354732 29.16859 
L 158.718454 290.369186 
L 171.082176 279.356776 
L 183.445899 290.369186 
L 195.809621 290.369186 
L 208.173343 290.369186 
L 220.537066 290.369186 
L 232.900788 290.369186 
L 245.26451 290.369186 
L 257.628233 290.369186 
L 269.991955 290.369186 
L 282.355677 290.369186 
L 294.7194 290.369186 
L 307.083122 290.369186 
L 319.446844 290.369186 
L 331.810567 290.369186 
L 344.174289 290.369186 
L 356.538011 290.369186 
L 368.901734 290.369186 
L 381.265456 290.369186 
L 393.629178 290.369186 
L 405.992901 290.369186 
L 418.356623 290.369186 
L 430.720346 290.369186 
" style="fill:none;stroke:#ff00ff;stroke-linecap:square;stroke-width:2;"/>
    <defs>
     <path d="M -2 2 
L 2 -2 
M -2 -2 
L 2 2 
" id="me32bd1ae50" style="stroke:#ff00ff;"/>
    </defs>
    <g clip-path="url(#p19bffa6e5a)">
     <use style="fill:#ff00ff;stroke:#ff00ff;" x="72.172397" xlink:href="#me32bd1ae50" y="290.369186"/>
     <use style="fill:#ff00ff;stroke:#ff00ff;" x="84.53612" xlink:href="#me32bd1ae50" y="290.369186"/>
     <use style="fill:#ff00ff;stroke:#ff00ff;" x="96.899842" xlink:href="#me32bd1ae50" y="290.369186"/>
     <use style="fill:#ff00ff;stroke:#ff00ff;" x="109.263564" xlink:href="#me32bd1ae50" y="290.369186"/>
     <use style="fill:#ff00ff;stroke:#ff00ff;" x="121.627287" xlink:href="#me32bd1ae50" y="204.764906"/>
     <use style="fill:#ff00ff;stroke:#ff00ff;" x="133.991009" xlink:href="#me32bd1ae50" y="290.369186"/>
     <use style="fill:#ff00ff;stroke:#ff00ff;" x="146.354732" xlink:href="#me32bd1ae50" y="29.16859"/>
     <use style="fill:#ff00ff;stroke:#ff00ff;" x="158.718454" xlink:href="#me32bd1ae50" y="290.369186"/>
     <use style="fill:#ff00ff;stroke:#ff00ff;" x="171.082176" xlink:href="#me32bd1ae50" y="279.356776"/>
     <use style="fill:#ff00ff;stroke:#ff00ff;" x="183.445899" xlink:href="#me32bd1ae50" y="290.369186"/>
     <use style="fill:#ff00ff;stroke:#ff00ff;" x="195.809621" xlink:href="#me32bd1ae50" y="290.369186"/>
     <use style="fill:#ff00ff;stroke:#ff00ff;" x="208.173343" xlink:href="#me32bd1ae50" y="290.369186"/>
     <use style="fill:#ff00ff;stroke:#ff00ff;" x="220.537066" xlink:href="#me32bd1ae50" y="290.369186"/>
     <use style="fill:#ff00ff;stroke:#ff00ff;" x="232.900788" xlink:href="#me32bd1ae50" y="290.369186"/>
     <use style="fill:#ff00ff;stroke:#ff00ff;" x="245.26451" xlink:href="#me32bd1ae50" y="290.369186"/>
     <use style="fill:#ff00ff;stroke:#ff00ff;" x="257.628233" xlink:href="#me32bd1ae50" y="290.369186"/>
     <use style="fill:#ff00ff;stroke:#ff00ff;" x="269.991955" xlink:href="#me32bd1ae50" y="290.369186"/>
     <use style="fill:#ff00ff;stroke:#ff00ff;" x="282.355677" xlink:href="#me32bd1ae50" y="290.369186"/>
     <use style="fill:#ff00ff;stroke:#ff00ff;" x="294.7194" xlink:href="#me32bd1ae50" y="290.369186"/>
     <use style="fill:#ff00ff;stroke:#ff00ff;" x="307.083122" xlink:href="#me32bd1ae50" y="290.369186"/>
     <use style="fill:#ff00ff;stroke:#ff00ff;" x="319.446844" xlink:href="#me32bd1ae50" y="290.369186"/>
     <use style="fill:#ff00ff;stroke:#ff00ff;" x="331.810567" xlink:href="#me32bd1ae50" y="290.369186"/>
     <use style="fill:#ff00ff;stroke:#ff00ff;" x="344.174289" xlink:href="#me32bd1ae50" y="290.369186"/>
     <use style="fill:#ff00ff;stroke:#ff00ff;" x="356.538011" xlink:href="#me32bd1ae50" y="290.369186"/>
     <use style="fill:#ff00ff;stroke:#ff00ff;" x="368.901734" xlink:href="#me32bd1ae50" y="290.369186"/>
     <use style="fill:#ff00ff;stroke:#ff00ff;" x="381.265456" xlink:href="#me32bd1ae50" y="290.369186"/>
     <use style="fill:#ff00ff;stroke:#ff00ff;" x="393.629178" xlink:href="#me32bd1ae50" y="290.369186"/>
     <use style="fill:#ff00ff;stroke:#ff00ff;" x="405.992901" xlink:href="#me32bd1ae50" y="290.369186"/>
     <use style="fill:#ff00ff;stroke:#ff00ff;" x="418.356623" xlink:href="#me32bd1ae50" y="290.369186"/>
     <use style="fill:#ff00ff;stroke:#ff00ff;" x="430.720346" xlink:href="#me32bd1ae50" y="290.369186"/>
    </g>
   </g>
   <g id="patch_3">
    <path d="M 54.245 303.64 
L 54.245 11.682088 
" style="fill:none;stroke:#000000;stroke-linecap:square;stroke-linejoin:miter;stroke-width:0.8;"/>
   </g>
   <g id="patch_4">
    <path d="M 448.647743 303.64 
L 448.647743 11.682088 
" style="fill:none;stroke:#000000;stroke-linecap:square;stroke-linejoin:miter;stroke-width:0.8;"/>
   </g>
   <g id="patch_5">
    <path d="M 54.245 303.64 
L 448.647743 303.64 
" style="fill:none;stroke:#000000;stroke-linecap:square;stroke-linejoin:miter;stroke-width:0.8;"/>
   </g>
   <g id="patch_6">
    <path d="M 54.245 11.682088 
L 448.647743 11.682088 
" style="fill:none;stroke:#000000;stroke-linecap:square;stroke-linejoin:miter;stroke-width:0.8;"/>
   </g>
   <g id="legend_1">
    <g id="patch_7">
     <path d="M 377.768055 188.517294 
L 441.647743 188.517294 
Q 443.647743 188.517294 443.647743 186.517294 
L 443.647743 128.804794 
Q 443.647743 126.804794 441.647743 126.804794 
L 377.768055 126.804794 
Q 375.768055 126.804794 375.768055 128.804794 
L 375.768055 186.517294 
Q 375.768055 188.517294 377.768055 188.517294 
z
" style="fill:#ffffff;opacity:0.8;stroke:#cccccc;stroke-linejoin:miter;"/>
    </g>
    <g id="line2d_37">
     <path d="M 379.768055 134.903231 
L 399.768055 134.903231 
" style="fill:none;stroke:#0000ff;stroke-linecap:square;stroke-width:2;"/>
    </g>
    <g id="line2d_38">
     <g>
      <use style="fill:#0000ff;stroke:#0000ff;stroke-linejoin:bevel;" x="389.768055" xlink:href="#mfc4ab7b80b" y="134.903231"/>
     </g>
    </g>
    <g id="text_19">
     <!-- Bin 8 -->
     <g transform="translate(407.768055 138.403231)scale(0.1 -0.1)">
      <defs>
       <path d="M 19.671875 34.8125 
L 19.671875 8.109375 
L 35.5 8.109375 
Q 43.453125 8.109375 47.28125 11.40625 
Q 51.125 14.703125 51.125 21.484375 
Q 51.125 28.328125 47.28125 31.5625 
Q 43.453125 34.8125 35.5 34.8125 
z
M 19.671875 64.796875 
L 19.671875 42.828125 
L 34.28125 42.828125 
Q 41.5 42.828125 45.03125 45.53125 
Q 48.578125 48.25 48.578125 53.8125 
Q 48.578125 59.328125 45.03125 62.0625 
Q 41.5 64.796875 34.28125 64.796875 
z
M 9.8125 72.90625 
L 35.015625 72.90625 
Q 46.296875 72.90625 52.390625 68.21875 
Q 58.5 63.53125 58.5 54.890625 
Q 58.5 48.1875 55.375 44.234375 
Q 52.25 40.28125 46.1875 39.3125 
Q 53.46875 37.75 57.5 32.78125 
Q 61.53125 27.828125 61.53125 20.40625 
Q 61.53125 10.640625 54.890625 5.3125 
Q 48.25 0 35.984375 0 
L 9.8125 0 
z
" id="DejaVuSans-66"/>
      </defs>
      <use xlink:href="#DejaVuSans-66"/>
      <use x="68.603516" xlink:href="#DejaVuSans-105"/>
      <use x="96.386719" xlink:href="#DejaVuSans-110"/>
      <use x="159.765625" xlink:href="#DejaVuSans-32"/>
      <use x="191.552734" xlink:href="#DejaVuSans-56"/>
     </g>
    </g>
    <g id="line2d_39">
     <path d="M 379.768055 149.581356 
L 399.768055 149.581356 
" style="fill:none;stroke:#008000;stroke-linecap:square;stroke-width:2;"/>
    </g>
    <g id="line2d_40">
     <g>
      <use style="fill:#008000;stroke:#008000;stroke-linejoin:miter;" x="389.768055" xlink:href="#m43c7a8113d" y="149.581356"/>
     </g>
    </g>
    <g id="text_20">
     <!-- Bin 12 -->
     <g transform="translate(407.768055 153.081356)scale(0.1 -0.1)">
      <use xlink:href="#DejaVuSans-66"/>
      <use x="68.603516" xlink:href="#DejaVuSans-105"/>
      <use x="96.386719" xlink:href="#DejaVuSans-110"/>
      <use x="159.765625" xlink:href="#DejaVuSans-32"/>
      <use x="191.552734" xlink:href="#DejaVuSans-49"/>
      <use x="255.175781" xlink:href="#DejaVuSans-50"/>
     </g>
    </g>
    <g id="line2d_41">
     <path d="M 379.768055 164.259481 
L 399.768055 164.259481 
" style="fill:none;stroke:#00ffff;stroke-linecap:square;stroke-width:2;"/>
    </g>
    <g id="line2d_42">
     <g>
      <use style="fill:#00ffff;stroke:#00ffff;stroke-linejoin:miter;" x="389.768055" xlink:href="#ma6aea6da43" y="164.259481"/>
     </g>
    </g>
    <g id="text_21">
     <!-- Bin 18 -->
     <g transform="translate(407.768055 167.759481)scale(0.1 -0.1)">
      <use xlink:href="#DejaVuSans-66"/>
      <use x="68.603516" xlink:href="#DejaVuSans-105"/>
      <use x="96.386719" xlink:href="#DejaVuSans-110"/>
      <use x="159.765625" xlink:href="#DejaVuSans-32"/>
      <use x="191.552734" xlink:href="#DejaVuSans-49"/>
      <use x="255.175781" xlink:href="#DejaVuSans-56"/>
     </g>
    </g>
    <g id="line2d_43">
     <path d="M 379.768055 178.937606 
L 399.768055 178.937606 
" style="fill:none;stroke:#ff00ff;stroke-linecap:square;stroke-width:2;"/>
    </g>
    <g id="line2d_44">
     <g>
      <use style="fill:#ff00ff;stroke:#ff00ff;" x="389.768055" xlink:href="#me32bd1ae50" y="178.937606"/>
     </g>
    </g>
    <g id="text_22">
     <!-- Bin 26 -->
     <g transform="translate(407.768055 182.437606)scale(0.1 -0.1)">
      <use xlink:href="#DejaVuSans-66"/>
      <use x="68.603516" xlink:href="#DejaVuSans-105"/>
      <use x="96.386719" xlink:href="#DejaVuSans-110"/>
      <use x="159.765625" xlink:href="#DejaVuSans-32"/>
      <use x="191.552734" xlink:href="#DejaVuSans-50"/>
      <use x="255.175781" xlink:href="#DejaVuSans-54"/>
     </g>
    </g>
   </g>
  </g>
 </g>
 <defs>
  <clipPath id="p19bffa6e5a">
   <rect height="291.957912" width="394.402743" x="54.245" y="11.682088"/>
  </clipPath>
 </defs>
</svg>
